<?xml version="1.0" encoding="UTF-8" standalone="no"?>
<svg
   xmlns:dc="http://purl.org/dc/elements/1.1/"
   xmlns:cc="http://creativecommons.org/ns#"
   xmlns:rdf="http://www.w3.org/1999/02/22-rdf-syntax-ns#"
   xmlns:svg="http://www.w3.org/2000/svg"
   xmlns="http://www.w3.org/2000/svg"
   id="svg178"
   height="3.2646072cm"
   width="84.264587cm"
   version="1.0">
  <path
     style="opacity:1;fill:#000000;fill-opacity:1;stroke:none;stroke-width:1;stroke-linecap:square;stroke-linejoin:miter;stroke-miterlimit:4;stroke-dasharray:none;stroke-opacity:1;paint-order:normal"
     d="M 566.92809,1.0325409e-5 V 123.38673 h 123.3867 V 1.0325409e-5 Z M 594.60189,27.394541 h 14.8496 c 3.2506,10.047282 6.4639,20.724153 9.6407,32.027344 3.2506,11.229315 6.391,23.418241 9.4199,36.568359 h -14.6289 l -3.2129,-15.845703 h -18.2852 l -3.1035,15.845703 h -14.1836 c 3.2506,-13.519504 6.5388,-25.820783 9.8633,-36.902343 3.3245,-11.155438 6.5378,-21.719956 9.6406,-31.69336 z m 67.9297,0 h 12.1895 v 41.22461 h 7.4258 v 11.191406 h -7.4258 v 16.179687 h -13.6309 V 79.810557 h -28.5898 v -9.972656 c 1.4036,-2.881206 3.2134,-6.131978 5.4297,-9.751953 2.2163,-3.693854 4.6548,-7.461127 7.3144,-11.302735 2.6595,-3.841607 5.4668,-7.608881 8.4219,-11.302734 2.9551,-3.767731 5.9102,-7.130855 8.8652,-10.085938 z m -60.8379,13.298828 c -0.7387,2.585698 -1.4405,5.059762 -2.1054,7.423829 l -1.7735,6.871093 c -0.5171,2.216312 -1.0336,4.469577 -1.5508,6.759766 -0.4432,2.290189 -0.8868,4.653853 -1.33,7.091797 h 13.4082 c -0.4433,-2.437944 -0.8868,-4.801608 -1.3301,-7.091797 -0.4433,-2.290189 -0.9598,-4.543454 -1.5508,-6.759766 -0.5172,-2.290189 -1.1086,-4.580905 -1.7734,-6.871093 -0.591,-2.364067 -1.2554,-4.838131 -1.9942,-7.423829 z m 59.3965,3.767579 c -1.3298,1.699172 -2.6959,3.508884 -4.0996,5.429687 -1.4037,1.920804 -2.8073,3.953268 -4.2109,6.095703 -1.3298,2.068557 -2.6231,4.173971 -3.8789,6.316406 -1.256,2.142435 -2.3639,4.247849 -3.3243,6.316407 h 15.5137 z"
     id="rect4782" />
  <metadata
     id="metadata184">
    <rdf:RDF>
      <cc:Work
         rdf:about="">
        <dc:format>image/svg+xml</dc:format>
        <dc:type
           rdf:resource="http://purl.org/dc/dcmitype/StillImage" />
        <dc:title></dc:title>
      </cc:Work>
    </rdf:RDF>
  </metadata>
  <defs
     id="defs182" />
  <!-- White (ivory) block 52 key size 23*145/149 mm -->
  <!-- C first C4 middle C -->
  <!-- Black block 36 key size 9*95/99 mm -->
  <rect
     y="5.0000052"
     x="5"
     height="113.38583"
     width="113.38583"
     id="rect4630"
     style="opacity:1;fill:none;fill-opacity:1;stroke:#000000;stroke-width:10;stroke-linecap:square;stroke-linejoin:miter;stroke-miterlimit:4;stroke-dasharray:none;stroke-opacity:1;paint-order:normal" />
  <rect
     style="opacity:1;fill:none;fill-opacity:1;stroke:#000000;stroke-width:10;stroke-linecap:square;stroke-linejoin:miter;stroke-miterlimit:4;stroke-dasharray:none;stroke-opacity:1;paint-order:normal"
     id="rect4632"
     width="113.38583"
     height="113.38583"
     x="118.3858"
     y="5.0000052" />
  <rect
     y="5.0000052"
     x="231.77161"
     height="113.38583"
     width="113.38583"
     id="rect4634"
     style="opacity:1;fill:none;fill-opacity:1;stroke:#000000;stroke-width:10;stroke-linecap:square;stroke-linejoin:miter;stroke-miterlimit:4;stroke-dasharray:none;stroke-opacity:1;paint-order:normal" />
  <rect
     y="5.0000019"
     x="80.590515"
     height="75.590553"
     width="75.590553"
     id="rect4636"
     style="opacity:1;fill:#000000;fill-opacity:1;stroke:none;stroke-width:1;stroke-linecap:square;stroke-linejoin:miter;stroke-miterlimit:4;stroke-dasharray:none;stroke-opacity:1;paint-order:normal" />
  <rect
     style="opacity:1;fill:#000000;fill-opacity:1;stroke:none;stroke-width:1;stroke-linecap:square;stroke-linejoin:miter;stroke-miterlimit:4;stroke-dasharray:none;stroke-opacity:1;paint-order:normal"
     id="rect4638"
     width="75.590553"
     height="75.590553"
     x="193.97638"
     y="5.0000052" />
  <rect
     style="opacity:1;fill:none;fill-opacity:1;stroke:#000000;stroke-width:10;stroke-linecap:square;stroke-linejoin:miter;stroke-miterlimit:4;stroke-dasharray:none;stroke-opacity:1;paint-order:normal"
     id="rect4640"
     width="113.38583"
     height="113.38583"
     x="345.15747"
     y="5" />
  <path
     style="color:#000000;font-style:normal;font-variant:normal;font-weight:normal;font-stretch:normal;font-size:medium;line-height:normal;font-family:sans-serif;font-variant-ligatures:normal;font-variant-position:normal;font-variant-caps:normal;font-variant-numeric:normal;font-variant-alternates:normal;font-feature-settings:normal;text-indent:0;text-align:start;text-decoration:none;text-decoration-line:none;text-decoration-style:solid;text-decoration-color:#000000;letter-spacing:normal;word-spacing:normal;text-transform:none;writing-mode:lr-tb;direction:ltr;text-orientation:mixed;dominant-baseline:auto;baseline-shift:baseline;text-anchor:start;white-space:normal;shape-padding:0;clip-rule:nonzero;display:inline;overflow:visible;visibility:visible;opacity:1;isolation:auto;mix-blend-mode:normal;color-interpolation:sRGB;color-interpolation-filters:linearRGB;solid-color:#000000;solid-opacity:1;vector-effect:none;fill:#000000;fill-opacity:1;fill-rule:nonzero;stroke:none;stroke-width:10;stroke-linecap:square;stroke-linejoin:miter;stroke-miterlimit:4;stroke-dasharray:none;stroke-dashoffset:0;stroke-opacity:1;paint-order:normal;color-rendering:auto;image-rendering:auto;shape-rendering:auto;text-rendering:auto;enable-background:accumulate"
     d="M 453.54329,1.0325409e-5 V 5.0000103 123.38673 h 123.3868 V 95.990244 h -1.8321 c 0.6088,-2.531926 1.2207,-4.977409 1.8321,-7.423828 V 1.0325409e-5 Z m 10,9.999999674591 h 103.3868 v 103.38672 h -103.3868 z"
     id="rect4642" />
  <rect
     y="5.0000052"
     x="420.74805"
     height="75.590553"
     width="75.590553"
     id="rect4646"
     style="opacity:1;fill:#000000;fill-opacity:1;stroke:none;stroke-width:1;stroke-linecap:square;stroke-linejoin:miter;stroke-miterlimit:4;stroke-dasharray:none;stroke-opacity:1;paint-order:normal" />
  <path
     style="opacity:1;fill:#000000;fill-opacity:1;stroke:none;stroke-width:1;stroke-linecap:square;stroke-linejoin:miter;stroke-miterlimit:4;stroke-dasharray:none;stroke-opacity:1;paint-order:normal"
     d="M 534.13319,5.0000103 V 80.589854 h 44.8379 c 1.9837,-7.59437 3.9795,-14.799444 5.9902,-21.501953 3.3245,-11.155438 6.5378,-21.719956 9.6406,-31.69336 h 14.8496 c 0.091,0.282655 0.1821,0.57768 0.2735,0.861328 V 5.0000103 Z m 67.5605,35.6933587 c -0.7387,2.585698 -1.4405,5.059762 -2.1054,7.423829 l -1.7735,6.871093 c -0.5171,2.216312 -1.0336,4.469577 -1.5508,6.759766 -0.4432,2.290189 -0.8868,4.653853 -1.33,7.091797 h 13.4082 c -0.4433,-2.437944 -0.8868,-4.801608 -1.3301,-7.091797 -0.4433,-2.290189 -0.9598,-4.543454 -1.5508,-6.759766 -0.5172,-2.290189 -1.1086,-4.580905 -1.7734,-6.871093 -0.591,-2.364067 -1.2554,-4.838131 -1.9942,-7.423829 z m -9.3086,39.451172 -0.088,0.445313 h 17.4278 v -0.445313 z"
     id="rect4648" />
  <path
     style="color:#000000;font-style:normal;font-variant:normal;font-weight:normal;font-stretch:normal;font-size:medium;line-height:normal;font-family:sans-serif;font-variant-ligatures:normal;font-variant-position:normal;font-variant-caps:normal;font-variant-numeric:normal;font-variant-alternates:normal;font-feature-settings:normal;text-indent:0;text-align:start;text-decoration:none;text-decoration-line:none;text-decoration-style:solid;text-decoration-color:#000000;letter-spacing:normal;word-spacing:normal;text-transform:none;writing-mode:lr-tb;direction:ltr;text-orientation:mixed;dominant-baseline:auto;baseline-shift:baseline;text-anchor:start;white-space:normal;shape-padding:0;clip-rule:nonzero;display:inline;overflow:visible;visibility:visible;opacity:1;isolation:auto;mix-blend-mode:normal;color-interpolation:sRGB;color-interpolation-filters:linearRGB;solid-color:#000000;solid-opacity:1;vector-effect:none;fill:#000000;fill-opacity:1;fill-rule:nonzero;stroke:none;stroke-width:10;stroke-linecap:square;stroke-linejoin:miter;stroke-miterlimit:4;stroke-dasharray:none;stroke-dashoffset:0;stroke-opacity:1;paint-order:normal;color-rendering:auto;image-rendering:auto;shape-rendering:auto;text-rendering:auto;enable-background:accumulate"
     d="M 680.31479,1.0325409e-5 V 5.0000103 68.619151 h 1.8321 v 11.191406 h -1.8321 v 43.576173 h 123.3867 V 1.0325409e-5 Z m 10,9.999999674591 h 103.3867 v 103.38672 h -103.3867 z"
     id="rect4650" />
  <path
     style="opacity:1;fill:#000000;fill-opacity:1;stroke:none;stroke-width:1;stroke-linecap:square;stroke-linejoin:miter;stroke-miterlimit:4;stroke-dasharray:none;stroke-opacity:1;paint-order:normal"
     d="M 647.51989,5.0000103 V 45.568369 c 1.973,-2.733887 4.0206,-5.430474 6.1465,-8.08789 2.9551,-3.767731 5.9102,-7.130855 8.8652,-10.085938 h 12.1895 v 41.22461 h 7.4258 v 11.191406 h -7.4258 v 0.779297 h 48.3886 V 5.0000103 Z m 13.5703,39.4609377 c -1.3298,1.699172 -2.6959,3.508884 -4.0996,5.429687 -1.4037,1.920804 -2.8073,3.953268 -4.2109,6.095703 -1.3298,2.068557 -2.6231,4.173971 -3.8789,6.316406 -0.489,0.834111 -0.9367,1.657557 -1.3809,2.480469 v 3.835938 h 13.5703 z m -13.5703,35.349609 v 0.779297 h 13.5703 v -0.779297 z"
     id="rect4652" />
  <g
     transform="translate(798.70079,5.0000156)"
     id="g4680">
    <rect
       y="-1.8891601e-06"
       x="-5.740234e-06"
       height="113.38583"
       width="113.38583"
       id="rect4656"
       style="opacity:1;fill:none;fill-opacity:1;stroke:#000000;stroke-width:10;stroke-linecap:square;stroke-linejoin:miter;stroke-miterlimit:4;stroke-dasharray:none;stroke-opacity:1;paint-order:normal" />
    <rect
       style="opacity:1;fill:none;fill-opacity:1;stroke:#000000;stroke-width:10;stroke-linecap:square;stroke-linejoin:miter;stroke-miterlimit:4;stroke-dasharray:none;stroke-opacity:1;paint-order:normal"
       id="rect4658"
       width="113.38583"
       height="113.38583"
       x="113.38583"
       y="-1.8891601e-06" />
    <rect
       y="-1.8891601e-06"
       x="226.77165"
       height="113.38583"
       width="113.38583"
       id="rect4660"
       style="opacity:1;fill:none;fill-opacity:1;stroke:#000000;stroke-width:10;stroke-linecap:square;stroke-linejoin:miter;stroke-miterlimit:4;stroke-dasharray:none;stroke-opacity:1;paint-order:normal" />
    <rect
       y="-5.0620115e-06"
       x="75.590553"
       height="75.590553"
       width="75.590553"
       id="rect4662"
       style="opacity:1;fill:#000000;fill-opacity:1;stroke:none;stroke-width:1;stroke-linecap:square;stroke-linejoin:miter;stroke-miterlimit:4;stroke-dasharray:none;stroke-opacity:1;paint-order:normal" />
    <rect
       style="opacity:1;fill:#000000;fill-opacity:1;stroke:none;stroke-width:1;stroke-linecap:square;stroke-linejoin:miter;stroke-miterlimit:4;stroke-dasharray:none;stroke-opacity:1;paint-order:normal"
       id="rect4664"
       width="75.590553"
       height="75.590553"
       x="188.97638"
       y="-1.8891601e-06" />
    <rect
       style="opacity:1;fill:none;fill-opacity:1;stroke:#000000;stroke-width:10;stroke-linecap:square;stroke-linejoin:miter;stroke-miterlimit:4;stroke-dasharray:none;stroke-opacity:1;paint-order:normal"
       id="rect4666"
       width="113.38583"
       height="113.38583"
       x="340.15747"
       y="-7.1525574e-06" />
    <rect
       y="-7.1525574e-06"
       x="453.5433"
       height="113.38583"
       width="113.38583"
       id="rect4668"
       style="opacity:1;fill:none;fill-opacity:1;stroke:#000000;stroke-width:10;stroke-linecap:square;stroke-linejoin:miter;stroke-miterlimit:4;stroke-dasharray:none;stroke-opacity:1;paint-order:normal" />
    <rect
       style="opacity:1;fill:none;fill-opacity:1;stroke:#000000;stroke-width:10;stroke-linecap:square;stroke-linejoin:miter;stroke-miterlimit:4;stroke-dasharray:none;stroke-opacity:1;paint-order:normal"
       id="rect4670"
       width="113.38583"
       height="113.38583"
       x="566.92914"
       y="-7.1525574e-06" />
    <rect
       y="-1.8891601e-06"
       x="415.74805"
       height="75.590553"
       width="75.590553"
       id="rect4672"
       style="opacity:1;fill:#000000;fill-opacity:1;stroke:none;stroke-width:1;stroke-linecap:square;stroke-linejoin:miter;stroke-miterlimit:4;stroke-dasharray:none;stroke-opacity:1;paint-order:normal" />
    <rect
       style="opacity:1;fill:#000000;fill-opacity:1;stroke:none;stroke-width:1;stroke-linecap:square;stroke-linejoin:miter;stroke-miterlimit:4;stroke-dasharray:none;stroke-opacity:1;paint-order:normal"
       id="rect4674"
       width="75.590553"
       height="75.590553"
       x="529.13385"
       y="-1.8891601e-06" />
    <rect
       y="-1.8891601e-06"
       x="680.315"
       height="113.38583"
       width="113.38583"
       id="rect4676"
       style="opacity:1;fill:none;fill-opacity:1;stroke:#000000;stroke-width:10;stroke-linecap:square;stroke-linejoin:miter;stroke-miterlimit:4;stroke-dasharray:none;stroke-opacity:1;paint-order:normal" />
    <rect
       y="-1.8891601e-06"
       x="642.51965"
       height="75.590553"
       width="75.590553"
       id="rect4678"
       style="opacity:1;fill:#000000;fill-opacity:1;stroke:none;stroke-width:1;stroke-linecap:square;stroke-linejoin:miter;stroke-miterlimit:4;stroke-dasharray:none;stroke-opacity:1;paint-order:normal" />
  </g>
  <g
     id="g4706"
     transform="translate(1592.4016,5.0000103)">
    <rect
       style="opacity:1;fill:none;fill-opacity:1;stroke:#000000;stroke-width:10;stroke-linecap:square;stroke-linejoin:miter;stroke-miterlimit:4;stroke-dasharray:none;stroke-opacity:1;paint-order:normal"
       id="rect4682"
       width="113.38583"
       height="113.38583"
       x="-5.740234e-06"
       y="-1.8891601e-06" />
    <rect
       y="-1.8891601e-06"
       x="113.38583"
       height="113.38583"
       width="113.38583"
       id="rect4684"
       style="opacity:1;fill:none;fill-opacity:1;stroke:#000000;stroke-width:10;stroke-linecap:square;stroke-linejoin:miter;stroke-miterlimit:4;stroke-dasharray:none;stroke-opacity:1;paint-order:normal" />
    <rect
       style="opacity:1;fill:none;fill-opacity:1;stroke:#000000;stroke-width:10;stroke-linecap:square;stroke-linejoin:miter;stroke-miterlimit:4;stroke-dasharray:none;stroke-opacity:1;paint-order:normal"
       id="rect4686"
       width="113.38583"
       height="113.38583"
       x="226.77165"
       y="-1.8891601e-06" />
    <rect
       style="opacity:1;fill:#000000;fill-opacity:1;stroke:none;stroke-width:1;stroke-linecap:square;stroke-linejoin:miter;stroke-miterlimit:4;stroke-dasharray:none;stroke-opacity:1;paint-order:normal"
       id="rect4688"
       width="75.590553"
       height="75.590553"
       x="75.590553"
       y="-5.0620115e-06" />
    <rect
       y="-1.8891601e-06"
       x="188.97638"
       height="75.590553"
       width="75.590553"
       id="rect4690"
       style="opacity:1;fill:#000000;fill-opacity:1;stroke:none;stroke-width:1;stroke-linecap:square;stroke-linejoin:miter;stroke-miterlimit:4;stroke-dasharray:none;stroke-opacity:1;paint-order:normal" />
    <rect
       y="-7.1525574e-06"
       x="340.15747"
       height="113.38583"
       width="113.38583"
       id="rect4692"
       style="opacity:1;fill:none;fill-opacity:1;stroke:#000000;stroke-width:10;stroke-linecap:square;stroke-linejoin:miter;stroke-miterlimit:4;stroke-dasharray:none;stroke-opacity:1;paint-order:normal" />
    <rect
       style="opacity:1;fill:none;fill-opacity:1;stroke:#000000;stroke-width:10;stroke-linecap:square;stroke-linejoin:miter;stroke-miterlimit:4;stroke-dasharray:none;stroke-opacity:1;paint-order:normal"
       id="rect4694"
       width="113.38583"
       height="113.38583"
       x="453.5433"
       y="-7.1525574e-06" />
    <rect
       y="-7.1525574e-06"
       x="566.92914"
       height="113.38583"
       width="113.38583"
       id="rect4696"
       style="opacity:1;fill:none;fill-opacity:1;stroke:#000000;stroke-width:10;stroke-linecap:square;stroke-linejoin:miter;stroke-miterlimit:4;stroke-dasharray:none;stroke-opacity:1;paint-order:normal" />
    <rect
       style="opacity:1;fill:#000000;fill-opacity:1;stroke:none;stroke-width:1;stroke-linecap:square;stroke-linejoin:miter;stroke-miterlimit:4;stroke-dasharray:none;stroke-opacity:1;paint-order:normal"
       id="rect4698"
       width="75.590553"
       height="75.590553"
       x="415.74805"
       y="-1.8891601e-06" />
    <rect
       y="-1.8891601e-06"
       x="529.13385"
       height="75.590553"
       width="75.590553"
       id="rect4700"
       style="opacity:1;fill:#000000;fill-opacity:1;stroke:none;stroke-width:1;stroke-linecap:square;stroke-linejoin:miter;stroke-miterlimit:4;stroke-dasharray:none;stroke-opacity:1;paint-order:normal" />
    <rect
       style="opacity:1;fill:none;fill-opacity:1;stroke:#000000;stroke-width:10;stroke-linecap:square;stroke-linejoin:miter;stroke-miterlimit:4;stroke-dasharray:none;stroke-opacity:1;paint-order:normal"
       id="rect4702"
       width="113.38583"
       height="113.38583"
       x="680.315"
       y="-1.8891601e-06" />
    <rect
       style="opacity:1;fill:#000000;fill-opacity:1;stroke:none;stroke-width:1;stroke-linecap:square;stroke-linejoin:miter;stroke-miterlimit:4;stroke-dasharray:none;stroke-opacity:1;paint-order:normal"
       id="rect4704"
       width="75.590553"
       height="75.590553"
       x="642.51965"
       y="-1.8891601e-06" />
  </g>
  <g
     transform="translate(2386.1024,5.0000156)"
     id="g4732">
    <rect
       y="-1.8891601e-06"
       x="-5.740234e-06"
       height="113.38583"
       width="113.38583"
       id="rect4708"
       style="opacity:1;fill:none;fill-opacity:1;stroke:#000000;stroke-width:10;stroke-linecap:square;stroke-linejoin:miter;stroke-miterlimit:4;stroke-dasharray:none;stroke-opacity:1;paint-order:normal" />
    <rect
       style="opacity:1;fill:none;fill-opacity:1;stroke:#000000;stroke-width:10;stroke-linecap:square;stroke-linejoin:miter;stroke-miterlimit:4;stroke-dasharray:none;stroke-opacity:1;paint-order:normal"
       id="rect4710"
       width="113.38583"
       height="113.38583"
       x="113.38583"
       y="-1.8891601e-06" />
    <rect
       y="-1.8891601e-06"
       x="226.77165"
       height="113.38583"
       width="113.38583"
       id="rect4712"
       style="opacity:1;fill:none;fill-opacity:1;stroke:#000000;stroke-width:10;stroke-linecap:square;stroke-linejoin:miter;stroke-miterlimit:4;stroke-dasharray:none;stroke-opacity:1;paint-order:normal" />
    <rect
       y="-5.0620115e-06"
       x="75.590553"
       height="75.590553"
       width="75.590553"
       id="rect4714"
       style="opacity:1;fill:#000000;fill-opacity:1;stroke:none;stroke-width:1;stroke-linecap:square;stroke-linejoin:miter;stroke-miterlimit:4;stroke-dasharray:none;stroke-opacity:1;paint-order:normal" />
    <rect
       style="opacity:1;fill:#000000;fill-opacity:1;stroke:none;stroke-width:1;stroke-linecap:square;stroke-linejoin:miter;stroke-miterlimit:4;stroke-dasharray:none;stroke-opacity:1;paint-order:normal"
       id="rect4716"
       width="75.590553"
       height="75.590553"
       x="188.97638"
       y="-1.8891601e-06" />
    <rect
       style="opacity:1;fill:none;fill-opacity:1;stroke:#000000;stroke-width:10;stroke-linecap:square;stroke-linejoin:miter;stroke-miterlimit:4;stroke-dasharray:none;stroke-opacity:1;paint-order:normal"
       id="rect4718"
       width="113.38583"
       height="113.38583"
       x="340.15747"
       y="-7.1525574e-06" />
    <rect
       y="-7.1525574e-06"
       x="453.5433"
       height="113.38583"
       width="113.38583"
       id="rect4720"
       style="opacity:1;fill:none;fill-opacity:1;stroke:#000000;stroke-width:10;stroke-linecap:square;stroke-linejoin:miter;stroke-miterlimit:4;stroke-dasharray:none;stroke-opacity:1;paint-order:normal" />
    <rect
       style="opacity:1;fill:none;fill-opacity:1;stroke:#000000;stroke-width:10;stroke-linecap:square;stroke-linejoin:miter;stroke-miterlimit:4;stroke-dasharray:none;stroke-opacity:1;paint-order:normal"
       id="rect4722"
       width="113.38583"
       height="113.38583"
       x="566.92914"
       y="-7.1525574e-06" />
    <rect
       y="-1.8891601e-06"
       x="415.74805"
       height="75.590553"
       width="75.590553"
       id="rect4724"
       style="opacity:1;fill:#000000;fill-opacity:1;stroke:none;stroke-width:1;stroke-linecap:square;stroke-linejoin:miter;stroke-miterlimit:4;stroke-dasharray:none;stroke-opacity:1;paint-order:normal" />
    <rect
       style="opacity:1;fill:#000000;fill-opacity:1;stroke:none;stroke-width:1;stroke-linecap:square;stroke-linejoin:miter;stroke-miterlimit:4;stroke-dasharray:none;stroke-opacity:1;paint-order:normal"
       id="rect4726"
       width="75.590553"
       height="75.590553"
       x="529.13385"
       y="-1.8891601e-06" />
    <rect
       y="-1.8891601e-06"
       x="680.315"
       height="113.38583"
       width="113.38583"
       id="rect4728"
       style="opacity:1;fill:none;fill-opacity:1;stroke:#000000;stroke-width:10;stroke-linecap:square;stroke-linejoin:miter;stroke-miterlimit:4;stroke-dasharray:none;stroke-opacity:1;paint-order:normal" />
    <rect
       y="-1.8891601e-06"
       x="642.51965"
       height="75.590553"
       width="75.590553"
       id="rect4730"
       style="opacity:1;fill:#000000;fill-opacity:1;stroke:none;stroke-width:1;stroke-linecap:square;stroke-linejoin:miter;stroke-miterlimit:4;stroke-dasharray:none;stroke-opacity:1;paint-order:normal" />
  </g>
</svg>
